<svg width="130" height="39" viewBox="0 0 130 39" fill="none" xmlns="http://www.w3.org/2000/svg">
<path d="M58.1381 12.6917C56.7136 11.5063 54.9708 10.906 52.9478 10.906C50.417 10.906 48.3788 11.7191 46.8785 13.3224C45.4161 14.8726 44.666 16.9394 44.666 19.4622C44.666 21.947 45.4389 24.0139 46.9543 25.6021C48.4849 27.1978 50.5155 28.0109 53.0008 28.0109C54.0616 28.0109 55.0845 27.8209 56.0468 27.4486C56.8196 27.1446 57.5167 26.7647 58.1305 26.3087V27.7373H61.2447V11.172H58.1381V12.6917ZM58.1381 19.3559C58.1456 22.0534 56.5393 23.8315 55.3194 24.4394C54.6147 24.789 53.8419 24.9638 53.016 24.9638C51.3642 24.9638 50.1139 24.4698 49.1971 23.4516C48.2954 22.4638 47.8635 21.1492 47.8635 19.4318C47.8635 17.7449 48.3106 16.4379 49.2274 15.4273C50.1518 14.4014 51.3945 13.9075 53.016 13.9075C54.7056 13.9075 56.0922 14.5382 57.0242 15.7464C58.0168 17.023 58.1381 18.4516 58.1381 19.3559Z" fill="#393951"/>
<path d="M71.7628 10.9137C69.7321 10.9137 67.9894 11.514 66.5649 12.6994V4.17358H63.4355V26.8028V27.7374H63.9887H66.5649V26.3088C67.1786 26.7648 67.8757 27.1447 68.6486 27.4411C69.6109 27.8134 70.6338 28.0034 71.6946 28.0034C74.1874 28.0034 76.2257 27.1903 77.7486 25.5946C79.2641 24.0064 80.0293 21.9471 80.0293 19.4547C80.0293 16.9319 79.2868 14.8651 77.8244 13.3149C76.3317 11.7268 74.2859 10.9137 71.7628 10.9137ZM67.8151 15.7161C68.7092 14.5003 70.2473 13.9152 71.6794 13.9152C73.3009 13.9152 74.5435 14.4167 75.4679 15.435C76.3923 16.4532 76.8394 17.7678 76.8394 19.4395C76.8394 21.1341 76.3999 22.4411 75.4907 23.4441C74.5663 24.4699 73.3236 24.9639 71.687 24.9639C70.8535 24.9639 70.0958 24.7891 69.3836 24.4319C68.1636 23.824 66.5649 22.2131 66.5649 19.4319C66.5573 18.2997 66.9816 16.8332 67.8151 15.7161Z" fill="#393951"/>
<path d="M88.735 10.9138C87.2726 10.9138 86.0072 11.2634 84.954 11.9473V11.157H81.8398V27.7451H84.954V17.7603C84.954 16.5597 85.2874 15.6327 85.9618 14.9412C86.6361 14.2497 87.5454 13.9153 88.735 13.9153C89.917 13.9153 90.8263 14.3029 91.5158 15.0931C92.1977 15.8682 92.5311 16.8561 92.5311 18.1023V27.7375H95.615V18.4974C95.615 16.3166 95.0391 14.5232 93.9177 13.1783C92.6751 11.6737 90.9323 10.9138 88.735 10.9138Z" fill="#393951"/>
<path d="M18.6245 0.829834C8.35752 0.829834 0 9.2037 0 19.5C0 29.7964 8.34994 38.1703 18.6169 38.1703C28.8838 38.1703 37.2338 29.7964 37.2338 19.5C37.2413 9.2037 28.8838 0.829834 18.6245 0.829834ZM10.6306 23.2614C10.4715 24.1201 9.60016 24.6368 8.77426 24.3633C8.09232 24.1353 7.69831 23.4362 7.82712 22.7219C8.08474 21.3162 7.81954 20.3815 7.52404 19.3405C7.24369 18.345 6.93303 17.2508 7.09972 15.8298C7.2058 14.918 8.1302 14.3405 8.99399 14.652C9.62289 14.8724 10.0169 15.5107 9.93355 16.1794C9.83505 17.038 10.0245 17.7143 10.2669 18.5654C10.5094 19.4089 10.7822 20.3815 10.7822 21.6125C10.7898 22.1064 10.7443 22.6611 10.6306 23.2614ZM17.4803 27.2432C17.2682 28.0411 16.4271 28.497 15.6467 28.2387C14.9344 27.9955 14.5253 27.2432 14.7223 26.5137C15.7224 22.7219 15.0784 20.4347 14.3964 18.0259C13.76 15.769 13.1008 13.4438 13.8964 10.1687C14.0934 9.34807 14.9647 8.87694 15.7603 9.1581C16.4498 9.40126 16.8438 10.1231 16.6771 10.8374C16.0558 13.3906 16.5711 15.1915 17.1469 17.2356C17.6091 18.8542 18.1016 20.6019 18.1016 22.8131C18.0941 24.1125 17.9274 25.5639 17.4803 27.2432ZM30.1795 18.8314C30.1643 20.9666 28.1716 21.7113 26.982 22.152C26.5804 22.304 25.9288 22.5472 25.7393 22.7219C25.7545 22.9347 25.7924 23.0335 25.7999 23.0639C25.8454 23.1019 25.9666 23.1703 26.0576 23.2159C26.6334 23.535 27.6033 24.0669 27.9821 25.7311C28.361 27.3952 27.1108 29.0061 26.0121 30.0548C25.3832 30.6551 24.3755 30.5563 23.8678 29.8496L23.8602 29.842C23.4435 29.2645 23.5192 28.4666 24.0269 27.9727C24.6937 27.3268 25.2014 26.6505 25.1938 26.3693C25.1029 25.959 25.0498 25.9362 24.6785 25.7311C24.0951 25.4119 23.0192 24.8116 22.8828 22.9195C22.7312 20.6855 24.7695 19.9256 25.9818 19.4697C26.3985 19.3177 27.1714 19.0289 27.3154 18.8314C27.3154 18.8238 27.3154 18.8162 27.3154 18.8162C27.3154 18.4438 26.0045 17.6687 25.2241 17.2128C22.7919 15.7842 18.8518 13.4742 20.299 7.95749C20.5187 7.12163 21.4204 6.6581 22.216 6.98485C22.8828 7.25841 23.2389 7.98789 23.057 8.68698C22.163 12.1064 24.2618 13.3374 26.6562 14.7432C28.3837 15.7538 30.1643 16.8025 30.1643 18.8162C30.1795 18.8162 30.1795 18.8238 30.1795 18.8314Z" fill="#393951"/>
<path d="M126.894 11.1873V20.8377C126.894 22.0915 126.568 23.0718 125.894 23.8544C125.212 24.6447 124.31 25.0246 123.128 25.0246C121.931 25.0246 121.014 24.6447 120.332 23.862C119.658 23.0946 119.332 22.1067 119.332 20.8377V11.1873H116.248V20.4274C116.248 22.631 116.816 24.4243 117.93 25.7617C119.158 27.2587 120.908 28.011 123.128 28.011C124.575 28.011 125.825 27.6766 126.871 27.0003C126.78 28.3681 126.371 29.4395 125.636 30.2602C124.78 31.2253 123.583 31.6964 121.969 31.6964C121.537 31.6964 121.014 31.628 120.415 31.5064C119.544 31.324 118.733 30.9517 117.991 30.4122L117.93 30.3666L116.354 33.1097L116.521 33.2161C118.203 34.28 120.014 34.8195 121.908 34.8195C124.424 34.8195 126.432 34.014 127.894 32.4259C129.296 30.9061 130 28.862 130 26.3544V11.1873H126.894Z" fill="#393951"/>
<path d="M111.141 22.9503C110.482 23.6114 109.474 24.2725 108.64 24.5384C107.769 24.8196 106.898 24.964 106.057 24.964C104.496 24.964 103.268 24.508 102.314 23.581C101.556 22.8439 101.086 21.9321 100.874 20.7998H113.884C114.028 20.3667 114.194 19.1509 114.164 18.5734C114.073 16.7193 113.391 14.8348 111.838 13.2694C110.277 11.7041 108.284 10.9138 105.905 10.9138C103.458 10.9138 101.435 11.7345 99.8889 13.3606C98.3507 14.9716 97.5703 17.0308 97.5703 19.4776C97.5703 21.97 98.3659 24.0369 99.9344 25.6251C101.51 27.2132 103.564 28.0187 106.057 28.0187C109.08 28.0187 111.421 27.1904 113.012 25.5491L113.414 25.1311L111.141 22.9503ZM102.351 15.2299C103.276 14.3409 104.428 13.9153 105.882 13.9153C107.337 13.9153 108.489 14.3485 109.398 15.2299C110.103 15.9138 110.573 16.7497 110.823 17.7603H100.919C101.162 16.7497 101.639 15.9138 102.351 15.2299Z" fill="#393951"/>
</svg>
