<?xml version="1.0" encoding="utf-8"?>
<!-- Generator: Adobe Illustrator 26.0.1, SVG Export Plug-In . SVG Version: 6.00 Build 0)  -->
<svg version="1.1" id="Layer_1" xmlns="http://www.w3.org/2000/svg" xmlns:xlink="http://www.w3.org/1999/xlink" x="0px" y="0px"
	 viewBox="0 0 2000 1000" style="enable-background:new 0 0 2000 1000;" xml:space="preserve">
<style type="text/css">
	.st0{fill:#090909;}
	.st1{fill:#1143FB;}
	.st2{fill:#FFFFFF;}
</style>
<rect x="-2062.69" y="478.48" class="st0" width="2000" height="1000"/>
<rect x="0" y="-5.71" class="st1" width="2000" height="1000"/>
<g>
	<path class="st2" d="M592.95,401.11l114.61,215.51h-49.45l-16.58-32.01h-97.46l-16.01,32.01h-49.73L592.95,401.11z M619.82,546.02
		l-26.87-54.59l-26.58,54.59H619.82z"/>
	<path class="st2" d="M711.84,616.62V400.54h42.3v75.17c8-10.58,24.87-19.72,47.73-19.72c49.73,0,78.89,36.87,78.89,82.03
		s-29.15,82.03-78.89,82.03c-22.29,0-41.16-10.29-47.73-19.15v15.72H711.84z M795.59,582.32c26.3,0,43.16-19.43,43.16-44.3
		c0-25.72-16.01-44.59-43.16-44.59c-26.58,0-43.16,18.58-43.16,44.59C752.43,565.46,769.01,582.32,795.59,582.32z"/>
	<path class="st2" d="M1017.66,600.89c-6.58,8.86-25.44,19.15-47.73,19.15c-49.73,0-78.89-36.87-78.89-82.03
		s29.15-82.03,78.89-82.03c22.86,0,39.73,9.15,47.73,19.72v-16.29h42.3v157.2h-42.3V600.89z M976.22,493.43
		c-27.15,0-43.16,18.86-43.16,44.59c0,24.87,16.86,44.3,43.16,44.3c26.58,0,43.16-16.86,43.16-44.3
		C1019.38,512.01,1002.8,493.43,976.22,493.43z"/>
	<path class="st2" d="M1231.45,523.73v92.89h-43.73v-92.89c0-24.29-13.72-31.73-30.3-31.73c-11.72,0-30.87,7.14-30.01,41.44v83.17
		h-42.59v-157.2h42.59v14c10.58-10.57,28.01-16.86,42.02-16.86C1214.87,456.56,1231.45,482.85,1231.45,523.73z"/>
	<path class="st2" d="M1308.9,560.6c0,8.57,0.29,23.44,19.43,23.44c4.86,0,8.29-0.29,10.86-0.57v36.01
		c-5.15,0.58-13.15,1.15-19.15,1.15c-33.15,0-53.45-6-53.45-39.16v-87.17h-19.15v-37.44h19.15v-42.02h42.3v42.02h31.44v37.44h-31.44
		V560.6z"/>
	<path class="st2" d="M1348.62,538.59c0-64.6,56.02-81.74,85.46-81.74c40.3,0,80.6,27.44,82.03,78.03c0,12.01-0.86,19.72-0.86,19.72
		h-124.04c5.15,25.72,34.3,28.58,42.87,28.58c23.72,0,35.44-12.87,40.3-18.29l33.16,19.15c-6.29,8.57-27.44,36.58-73.46,36.58
		C1403.5,620.62,1348.62,603.18,1348.62,538.59z M1392.35,524.3h78.6c-1.71-14.29-15.72-30.01-37.16-30.01
		C1409.22,494.29,1394.07,508.29,1392.35,524.3z"/>
	<path class="st2" d="M1640.87,401.11l114.61,215.51h-49.45l-16.57-32.01h-97.46l-16.01,32.01h-49.73L1640.87,401.11z
		 M1667.73,546.02l-26.87-54.59l-26.58,54.59H1667.73z"/>
	<path class="st2" d="M1767.48,616.62V407.68h45.16v208.93H1767.48z"/>
	<polygon class="st2" points="307.61,474.58 307.61,539.18 289.69,553.76 289.38,554.01 219.91,610.39 219.91,533.7 252.07,507.41 
		219.91,480.37 219.91,401.59 293.21,462.58 	"/>
	<g>
		<g>
			<polygon class="st2" points="468.55,481.6 468.55,525.5 252.21,694.79 252.21,618.84 257.91,614.4 304.6,577.66 397.67,504.56 
				310.18,437.69 261.06,400.16 252.21,393.4 252.21,322.93 			"/>
		</g>
	</g>
	<polygon class="st2" points="293.22,462.59 349.38,508.86 280.88,560.38 	"/>
</g>
<g>
	<path class="st1" d="M-1469.74,879.59l114.61,215.51h-49.45l-16.58-32.01h-97.46l-16.01,32.01h-49.73L-1469.74,879.59z
		 M-1442.87,1024.5l-26.87-54.59l-26.58,54.59H-1442.87z"/>
	<path class="st1" d="M-1350.85,1095.1V879.02h42.3v75.17c8-10.58,24.87-19.72,47.73-19.72c49.73,0,78.89,36.87,78.89,82.03
		s-29.15,82.03-78.89,82.03c-22.29,0-41.16-10.29-47.73-19.15v15.72H-1350.85z M-1267.1,1060.8c26.3,0,43.16-19.44,43.16-44.3
		c0-25.72-16.01-44.59-43.16-44.59c-26.58,0-43.16,18.58-43.16,44.59C-1310.26,1043.94-1293.68,1060.8-1267.1,1060.8z"/>
	<path class="st1" d="M-1045.03,1079.37c-6.58,8.86-25.44,19.15-47.73,19.15c-49.73,0-78.89-36.87-78.89-82.03
		s29.15-82.03,78.89-82.03c22.86,0,39.73,9.15,47.73,19.72v-16.29h42.3v157.2h-42.3V1079.37z M-1086.47,971.91
		c-27.15,0-43.16,18.86-43.16,44.59c0,24.87,16.86,44.3,43.16,44.3c26.58,0,43.16-16.86,43.16-44.3
		C-1043.31,990.49-1059.89,971.91-1086.47,971.91z"/>
	<path class="st1" d="M-831.24,1002.21v92.89h-43.73v-92.89c0-24.29-13.72-31.73-30.3-31.73c-11.72,0-30.87,7.14-30.01,41.44v83.17
		h-42.59v-157.2h42.59v14c10.58-10.57,28.01-16.86,42.02-16.86C-847.82,935.04-831.24,961.33-831.24,1002.21z"/>
	<path class="st1" d="M-753.79,1039.08c0,8.57,0.29,23.44,19.43,23.44c4.86,0,8.29-0.29,10.86-0.57v36.01
		c-5.15,0.57-13.15,1.15-19.15,1.15c-33.15,0-53.45-6-53.45-39.16v-87.17h-19.15v-37.44h19.15v-42.02h42.3v42.02h31.44v37.44h-31.44
		V1039.08z"/>
	<path class="st1" d="M-714.07,1017.07c0-64.6,56.02-81.74,85.46-81.74c40.3,0,80.6,27.44,82.03,78.03
		c0,12.01-0.86,19.72-0.86,19.72h-124.04c5.15,25.72,34.3,28.58,42.87,28.58c23.72,0,35.44-12.87,40.3-18.29l33.16,19.15
		c-6.29,8.57-27.44,36.58-73.46,36.58C-659.19,1099.1-714.07,1081.66-714.07,1017.07z M-670.34,1002.78h78.6
		c-1.71-14.29-15.72-30.01-37.16-30.01C-653.47,972.77-668.62,986.77-670.34,1002.78z"/>
	<path class="st2" d="M-421.82,879.59l114.61,215.51h-49.45l-16.57-32.01h-97.46l-16.01,32.01h-49.73L-421.82,879.59z
		 M-394.96,1024.5l-26.87-54.59l-26.58,54.59H-394.96z"/>
	<path class="st2" d="M-295.21,1095.1V886.16h45.16v208.93H-295.21z"/>
	<polygon class="st2" points="-1755.08,953.06 -1755.08,1017.66 -1773,1032.23 -1773.31,1032.49 -1842.78,1088.87 -1842.78,1012.18 
		-1810.62,985.89 -1842.78,958.85 -1842.78,880.07 -1769.48,941.06 	"/>
	<g>
		<g>
			<polygon class="st1" points="-1594.14,960.08 -1594.14,1003.98 -1810.48,1173.27 -1810.48,1097.32 -1804.78,1092.88 
				-1758.09,1056.14 -1665.02,983.04 -1752.51,916.17 -1801.63,878.64 -1810.48,871.88 -1810.48,801.41 			"/>
		</g>
	</g>
	<polygon class="st2" points="-1769.47,941.07 -1713.31,987.34 -1781.81,1038.86 	"/>
</g>
<g>
	<path class="st1" d="M-1469.74-193.98l114.61,215.51h-49.45l-16.58-32.01h-97.46l-16.01,32.01h-49.73L-1469.74-193.98z
		 M-1442.87-49.07l-26.87-54.59l-26.58,54.59H-1442.87z"/>
	<path class="st1" d="M-1350.85,21.53v-216.08h42.3v75.17c8-10.58,24.87-19.72,47.73-19.72c49.73,0,78.89,36.87,78.89,82.03
		s-29.15,82.03-78.89,82.03c-22.29,0-41.16-10.29-47.73-19.15v15.72H-1350.85z M-1267.1-12.77c26.3,0,43.16-19.44,43.16-44.3
		c0-25.72-16.01-44.59-43.16-44.59c-26.58,0-43.16,18.58-43.16,44.59C-1310.26-29.63-1293.68-12.77-1267.1-12.77z"/>
	<path class="st1" d="M-1045.03,5.81c-6.58,8.86-25.44,19.15-47.73,19.15c-49.73,0-78.89-36.87-78.89-82.03s29.15-82.03,78.89-82.03
		c22.86,0,39.73,9.15,47.73,19.72v-16.29h42.3v157.2h-42.3V5.81z M-1086.47-101.66c-27.15,0-43.16,18.86-43.16,44.59
		c0,24.87,16.86,44.3,43.16,44.3c26.58,0,43.16-16.86,43.16-44.3C-1043.31-83.08-1059.89-101.66-1086.47-101.66z"/>
	<path class="st1" d="M-831.24-71.36v92.89h-43.73v-92.89c0-24.29-13.72-31.73-30.3-31.73c-11.72,0-30.87,7.14-30.01,41.44v83.17
		h-42.59v-157.2h42.59v14c10.58-10.57,28.01-16.86,42.02-16.86C-847.82-138.53-831.24-112.23-831.24-71.36z"/>
	<path class="st1" d="M-753.79-34.49c0,8.57,0.29,23.44,19.43,23.44c4.86,0,8.29-0.29,10.86-0.57v36.01
		c-5.15,0.58-13.15,1.15-19.15,1.15c-33.15,0-53.45-6-53.45-39.16v-87.17h-19.15v-37.44h19.15v-42.02h42.3v42.02h31.44v37.44h-31.44
		V-34.49z"/>
	<path class="st1" d="M-714.07-56.5c0-64.6,56.02-81.74,85.46-81.74c40.3,0,80.6,27.44,82.03,78.03c0,12.01-0.86,19.72-0.86,19.72
		h-124.04c5.15,25.72,34.3,28.58,42.87,28.58c23.72,0,35.44-12.87,40.3-18.29l33.16,19.15c-6.29,8.57-27.44,36.58-73.46,36.58
		C-659.19,25.53-714.07,8.1-714.07-56.5z M-670.34-70.79h78.6c-1.71-14.29-15.72-30.01-37.16-30.01
		C-653.47-100.8-668.62-86.79-670.34-70.79z"/>
	<path class="st0" d="M-421.82-193.98l114.61,215.51h-49.45l-16.57-32.01h-97.46l-16.01,32.01h-49.73L-421.82-193.98z
		 M-394.96-49.07l-26.87-54.59l-26.58,54.59H-394.96z"/>
	<path class="st0" d="M-295.21,21.53V-187.4h45.16V21.53H-295.21z"/>
	<polygon class="st0" points="-1755.08,-120.5 -1755.08,-55.9 -1773,-41.33 -1773.31,-41.08 -1842.78,15.3 -1842.78,-61.38 
		-1810.62,-87.67 -1842.78,-114.71 -1842.78,-193.5 -1769.48,-132.5 	"/>
	<g>
		<g>
			<polygon class="st1" points="-1594.14,-113.49 -1594.14,-69.58 -1810.48,99.71 -1810.48,23.76 -1804.78,19.32 -1758.09,-17.43 
				-1665.02,-90.53 -1752.51,-157.39 -1801.63,-194.93 -1810.48,-201.69 -1810.48,-272.15 			"/>
		</g>
	</g>
	<polygon class="st0" points="-1769.47,-132.5 -1713.31,-86.22 -1781.81,-34.71 	"/>
</g>
</svg>
