<?xml version="1.0" encoding="utf-8"?>
<!-- Generator: Adobe Illustrator 25.4.1, SVG Export Plug-In . SVG Version: 6.00 Build 0)  -->
<svg version="1.1" id="Layer_1" xmlns="http://www.w3.org/2000/svg" xmlns:xlink="http://www.w3.org/1999/xlink" x="0px" y="0px"
	 width="1920px" height="734.34px" viewBox="0 0 1920 734.34" style="enable-background:new 0 0 1920 734.34;" xml:space="preserve"
	>
<g>
	<path d="M599.37,308.43c-26.94,0-47.5,15.95-56.01,40.42h-1.06V244.62h-37.93v244.62h37.93v-37.22h1.06
		c8.51,24.46,29.07,40.77,56.01,40.77c48.21,0,74.45-42.54,74.45-92.17C673.81,350.97,646.52,308.43,599.37,308.43z M586.96,464.06
		c-29.78,0-46.09-25.88-46.09-63.46c0-37.93,16.31-63.46,46.09-63.46c29.42,0,46.09,25.53,46.09,63.46
		C633.04,438.18,616.38,464.06,586.96,464.06z M411.02,244.62l78.22,244.62h-44.01l-78.3-244.62H411.02z M841.81,374.02v115.22
		h-38.64V385.36c0-32.97-11.7-47.86-35.45-47.86c-23.75,0-35.45,16.31-35.45,45.38v106.35h-38.64V311.97h37.58v34.74h0.71
		c7.44-24.82,25.88-38.29,51.76-38.29C822.66,308.43,841.81,335.02,841.81,374.02z M322.83,244.62h44.09l-78.3,244.62h-44.01
		L322.83,244.62z M1054.64,311.99h91.4v28.71h-52.76v148.53h-38.64V311.99z M1674.53,244.62v244.62h-38.64V244.62H1674.53z
		 M1571.72,348.85h-1.06c-8.51-24.46-29.07-40.42-56.01-40.42c-47.15,0-74.45,42.54-74.45,92.17c0,49.63,26.24,92.17,74.45,92.17
		c26.94,0,47.51-16.31,56.01-40.77h1.06v37.22h37.93V311.97h-37.93V348.85z M1526.7,464.06c-28.36,0-45.73-25.88-45.73-63.46
		c0-37.93,17.02-63.46,45.73-63.46c28.72,0,46.44,25.53,46.44,63.46C1573.14,438.18,1555.42,464.06,1526.7,464.06z M948.19,308.43
		c-53.89,0-86.86,44.31-86.86,92.17c0,47.86,32.97,92.17,86.86,92.17c53.89,0,86.86-44.31,86.86-92.17
		C1035.05,352.74,1002.08,308.43,948.19,308.43z M948.19,464.06c-29.42,0-46.09-25.88-46.09-63.46c0-37.93,16.66-63.46,46.09-63.46
		c29.78,0,46.44,25.53,46.44,63.46C994.63,438.18,977.97,464.06,948.19,464.06z M1420.67,374.02v115.22h-38.64V385.36
		c0-32.97-10.99-47.86-34.39-47.86c-24.11,0-34.39,16.31-34.39,45.38v106.35h-38.64V385.36c0-32.97-11.35-47.86-34.39-47.86
		c-24.11,0-34.74,16.31-34.74,45.38v106.35h-38.64V311.97h37.58v34.74h0.71c7.44-24.82,24.11-38.29,49.63-38.29
		c29.07,0,47.51,14.89,54.6,38.29h0.71c7.8-24.82,25.88-38.29,52.11-38.29C1401.53,308.43,1420.67,335.02,1420.67,374.02z"/>
</g>
</svg>
